<svg xmlns="http://www.w3.org/2000/svg" xmlns:xlink="http://www.w3.org/1999/xlink" width="332" zoomAndPan="magnify" viewBox="0 0 249 94.499997" height="126" preserveAspectRatio="xMidYMid meet" version="1.0"><defs><g/></defs><g fill="#000000" fill-opacity="1"><g transform="translate(51.172543, 75.763048)"><g><path d="M 3.296875 -21.53125 L 3.296875 -38.125 C 3.242188 -39.0625 3.203125 -40 3.171875 -40.9375 C 3.148438 -41.882812 3.140625 -42.832031 3.140625 -43.78125 C 3.140625 -44.40625 3.148438 -45.046875 3.171875 -45.703125 C 3.203125 -46.359375 3.21875 -47.023438 3.21875 -47.703125 C 3.269531 -48.117188 3.296875 -48.523438 3.296875 -48.921875 C 3.296875 -49.316406 3.320312 -49.695312 3.375 -50.0625 C 3.375 -50.800781 3.375 -51.484375 3.375 -52.109375 C 3.375 -52.734375 3.398438 -53.390625 3.453125 -54.078125 C 3.503906 -54.804688 3.648438 -55.25 3.890625 -55.40625 C 4.128906 -55.5625 4.507812 -55.640625 5.03125 -55.640625 C 6.132812 -55.691406 7.222656 -55.71875 8.296875 -55.71875 C 9.367188 -55.71875 10.425781 -55.742188 11.46875 -55.796875 C 11.945312 -55.796875 12.289062 -55.769531 12.5 -55.71875 C 13.070312 -55.71875 13.359375 -55.429688 13.359375 -54.859375 L 13.359375 -52.265625 C 13.460938 -49.328125 13.566406 -46.390625 13.671875 -43.453125 C 13.773438 -40.523438 13.800781 -37.59375 13.75 -34.65625 C 13.695312 -33.613281 13.695312 -32.539062 13.75 -31.4375 C 13.800781 -30.332031 13.851562 -29.257812 13.90625 -28.21875 C 13.957031 -26.070312 13.984375 -23.894531 13.984375 -21.6875 C 13.984375 -19.488281 14.007812 -17.316406 14.0625 -15.171875 C 14.0625 -14.484375 14.046875 -13.785156 14.015625 -13.078125 C 13.992188 -12.378906 13.984375 -11.6875 13.984375 -11 C 13.984375 -10.738281 14.113281 -10.609375 14.375 -10.609375 L 15.25 -10.609375 C 16.71875 -10.609375 18.171875 -10.539062 19.609375 -10.40625 C 21.046875 -10.28125 22.5 -10.191406 23.96875 -10.140625 C 24.539062 -10.085938 25.085938 -10.0625 25.609375 -10.0625 C 26.140625 -10.0625 26.664062 -10.035156 27.1875 -9.984375 C 27.457031 -9.984375 27.695312 -9.96875 27.90625 -9.9375 C 28.113281 -9.914062 28.320312 -9.878906 28.53125 -9.828125 C 29.101562 -9.617188 29.390625 -9.117188 29.390625 -8.328125 C 29.390625 -7.859375 29.390625 -7.398438 29.390625 -6.953125 C 29.390625 -6.503906 29.363281 -6.046875 29.3125 -5.578125 C 29.257812 -4.898438 29.234375 -4.21875 29.234375 -3.53125 C 29.234375 -2.851562 29.207031 -2.175781 29.15625 -1.5 L 29.15625 -1.015625 C 29.101562 -0.390625 28.789062 -0.0234375 28.21875 0.078125 C 28.007812 0.128906 27.785156 0.179688 27.546875 0.234375 C 27.304688 0.285156 27.054688 0.335938 26.796875 0.390625 C 25.546875 0.441406 24.273438 0.492188 22.984375 0.546875 C 21.703125 0.597656 20.40625 0.597656 19.09375 0.546875 L 13.671875 0.3125 C 13.148438 0.3125 12.648438 0.320312 12.171875 0.34375 C 11.703125 0.375 11.207031 0.390625 10.6875 0.390625 C 9.800781 0.335938 8.898438 0.363281 7.984375 0.46875 C 7.066406 0.570312 6.160156 0.648438 5.265625 0.703125 C 4.585938 0.703125 4.128906 0.582031 3.890625 0.34375 C 3.648438 0.113281 3.503906 -0.335938 3.453125 -1.015625 C 3.398438 -2.484375 3.359375 -3.960938 3.328125 -5.453125 C 3.304688 -6.953125 3.296875 -8.4375 3.296875 -9.90625 C 3.242188 -11.84375 3.226562 -13.78125 3.25 -15.71875 C 3.28125 -17.65625 3.296875 -19.59375 3.296875 -21.53125 Z M 3.296875 -21.53125 "/></g></g></g><g fill="#000000" fill-opacity="1"><g transform="translate(83.707588, 75.763048)"><g><path d="M 3.296875 -36.9375 C 3.398438 -39.34375 3.460938 -41.738281 3.484375 -44.125 C 3.515625 -46.507812 3.554688 -48.910156 3.609375 -51.328125 C 3.609375 -51.796875 3.632812 -52.273438 3.6875 -52.765625 C 3.738281 -53.265625 3.765625 -53.78125 3.765625 -54.3125 C 3.816406 -55.144531 4.289062 -55.507812 5.1875 -55.40625 C 5.550781 -55.40625 5.929688 -55.40625 6.328125 -55.40625 C 6.722656 -55.40625 7.101562 -55.429688 7.46875 -55.484375 L 12.34375 -55.484375 C 12.65625 -55.484375 12.890625 -55.273438 13.046875 -54.859375 C 13.097656 -54.648438 13.132812 -54.414062 13.15625 -54.15625 C 13.1875 -53.894531 13.203125 -53.628906 13.203125 -53.359375 C 13.203125 -52.003906 13.203125 -50.628906 13.203125 -49.234375 C 13.203125 -47.847656 13.175781 -46.472656 13.125 -45.109375 C 13.125 -43.015625 13.046875 -40.894531 12.890625 -38.75 C 12.835938 -37.851562 12.785156 -36.945312 12.734375 -36.03125 C 12.679688 -35.113281 12.628906 -34.210938 12.578125 -33.328125 C 12.523438 -32.171875 12.484375 -31.03125 12.453125 -29.90625 C 12.429688 -28.78125 12.421875 -27.613281 12.421875 -26.40625 C 12.421875 -25.570312 12.429688 -24.707031 12.453125 -23.8125 C 12.484375 -22.925781 12.5 -22.035156 12.5 -21.140625 C 12.550781 -18.734375 12.914062 -16.296875 13.59375 -13.828125 C 13.800781 -12.992188 14.195312 -12.179688 14.78125 -11.390625 C 15.457031 -10.453125 16.347656 -9.828125 17.453125 -9.515625 C 17.609375 -9.460938 17.773438 -9.421875 17.953125 -9.390625 C 18.140625 -9.367188 18.3125 -9.304688 18.46875 -9.203125 C 19.039062 -8.984375 19.585938 -8.882812 20.109375 -8.90625 C 20.640625 -8.9375 21.164062 -9.035156 21.6875 -9.203125 C 21.894531 -9.253906 22.101562 -9.304688 22.3125 -9.359375 C 22.53125 -9.410156 22.742188 -9.488281 22.953125 -9.59375 C 23.578125 -9.90625 24.085938 -10.332031 24.484375 -10.875 C 24.878906 -11.425781 25.179688 -12.019531 25.390625 -12.65625 C 25.910156 -14.28125 26.300781 -15.984375 26.5625 -17.765625 C 26.769531 -19.128906 26.953125 -20.460938 27.109375 -21.765625 C 27.265625 -23.078125 27.34375 -24.390625 27.34375 -25.703125 C 27.34375 -26.273438 27.382812 -26.863281 27.46875 -27.46875 C 27.550781 -28.070312 27.617188 -28.660156 27.671875 -29.234375 C 27.722656 -29.867188 27.75 -30.507812 27.75 -31.15625 C 27.75 -31.8125 27.75 -32.457031 27.75 -33.09375 C 27.800781 -35.707031 27.828125 -38.3125 27.828125 -40.90625 C 27.828125 -43.5 27.828125 -46.082031 27.828125 -48.65625 C 27.828125 -49.539062 27.835938 -50.398438 27.859375 -51.234375 C 27.890625 -52.078125 27.929688 -52.921875 27.984375 -53.765625 C 28.035156 -54.753906 28.503906 -55.273438 29.390625 -55.328125 C 30.441406 -55.378906 31.476562 -55.429688 32.5 -55.484375 C 33.519531 -55.535156 34.53125 -55.585938 35.53125 -55.640625 L 36.078125 -55.640625 C 36.859375 -55.640625 37.25 -55.273438 37.25 -54.546875 L 37.25 -53.359375 C 37.195312 -50.535156 37.15625 -47.722656 37.125 -44.921875 C 37.101562 -42.117188 37.09375 -39.300781 37.09375 -36.46875 C 37.039062 -35 37.015625 -33.554688 37.015625 -32.140625 C 37.015625 -30.722656 36.988281 -29.285156 36.9375 -27.828125 C 36.882812 -25.890625 36.78125 -23.9375 36.625 -21.96875 C 36.46875 -20 36.234375 -18.019531 35.921875 -16.03125 C 35.492188 -13.625 34.941406 -11.289062 34.265625 -9.03125 C 34.003906 -8.144531 33.660156 -7.28125 33.234375 -6.4375 C 32.816406 -5.601562 32.320312 -4.796875 31.75 -4.015625 C 31.332031 -3.378906 30.832031 -2.835938 30.25 -2.390625 C 29.675781 -1.953125 29.078125 -1.519531 28.453125 -1.09375 C 27.503906 -0.570312 26.503906 -0.101562 25.453125 0.3125 C 24.410156 0.726562 23.335938 0.988281 22.234375 1.09375 C 21.503906 1.195312 20.757812 1.222656 20 1.171875 C 19.238281 1.117188 18.492188 1.066406 17.765625 1.015625 C 17.398438 0.960938 17.046875 0.910156 16.703125 0.859375 C 16.359375 0.804688 16.03125 0.753906 15.71875 0.703125 C 13.363281 0.078125 11.320312 -1.125 9.59375 -2.90625 C 9.21875 -3.320312 8.859375 -3.738281 8.515625 -4.15625 C 8.179688 -4.582031 7.882812 -5.003906 7.625 -5.421875 C 5.375 -9.035156 4.035156 -12.992188 3.609375 -17.296875 C 3.554688 -18.023438 3.503906 -18.71875 3.453125 -19.375 C 3.398438 -20.03125 3.347656 -20.695312 3.296875 -21.375 C 3.242188 -22.269531 3.203125 -23.1875 3.171875 -24.125 C 3.148438 -25.070312 3.164062 -25.988281 3.21875 -26.875 C 3.21875 -28.550781 3.226562 -30.226562 3.25 -31.90625 C 3.28125 -33.582031 3.296875 -35.257812 3.296875 -36.9375 Z M 3.296875 -36.9375 "/></g></g></g><g fill="#000000" fill-opacity="1"><g transform="translate(124.101335, 75.763048)"><g><path d="M 20.28125 0.9375 C 19.382812 0.988281 18.515625 0.9375 17.671875 0.78125 C 16.835938 0.625 16.003906 0.441406 15.171875 0.234375 C 13.390625 -0.234375 11.816406 -0.96875 10.453125 -1.96875 C 10.242188 -2.125 10.007812 -2.28125 9.75 -2.4375 C 9.488281 -2.59375 9.25 -2.75 9.03125 -2.90625 C 8.507812 -3.320312 8.015625 -3.742188 7.546875 -4.171875 C 6.804688 -4.847656 6.148438 -5.59375 5.578125 -6.40625 C 5.003906 -7.21875 4.453125 -8.039062 3.921875 -8.875 C 3.765625 -9.144531 3.632812 -9.421875 3.53125 -9.703125 C 3.425781 -9.992188 3.320312 -10.269531 3.21875 -10.53125 C 3.0625 -11 3.191406 -11.414062 3.609375 -11.78125 C 4.191406 -12.257812 4.769531 -12.769531 5.34375 -13.3125 C 5.914062 -13.863281 6.519531 -14.351562 7.15625 -14.78125 C 7.46875 -15.039062 7.765625 -15.300781 8.046875 -15.5625 C 8.335938 -15.820312 8.613281 -16.082031 8.875 -16.34375 C 9.195312 -16.65625 9.617188 -16.863281 10.140625 -16.96875 C 10.398438 -17.082031 10.59375 -17.054688 10.71875 -16.890625 C 10.851562 -16.734375 10.972656 -16.601562 11.078125 -16.5 C 11.285156 -16.289062 11.46875 -16.066406 11.625 -15.828125 C 11.789062 -15.597656 11.953125 -15.351562 12.109375 -15.09375 C 12.578125 -14.613281 13.03125 -14.125 13.46875 -13.625 C 13.914062 -13.132812 14.429688 -12.734375 15.015625 -12.421875 C 15.222656 -12.316406 15.40625 -12.210938 15.5625 -12.109375 C 15.71875 -12.003906 15.898438 -11.894531 16.109375 -11.78125 C 16.628906 -11.570312 17.125 -11.375 17.59375 -11.1875 C 18.070312 -11.007812 18.570312 -10.84375 19.09375 -10.6875 C 19.988281 -10.375 20.90625 -10.347656 21.84375 -10.609375 C 22.425781 -10.816406 22.988281 -11.035156 23.53125 -11.265625 C 24.082031 -11.503906 24.570312 -11.835938 25 -12.265625 C 26.25 -13.410156 26.585938 -14.820312 26.015625 -16.5 C 25.648438 -17.5 24.992188 -18.3125 24.046875 -18.9375 C 23.679688 -19.195312 23.285156 -19.472656 22.859375 -19.765625 C 22.441406 -20.054688 22.023438 -20.304688 21.609375 -20.515625 C 20.984375 -20.878906 20.367188 -21.242188 19.765625 -21.609375 C 19.160156 -21.972656 18.492188 -22.265625 17.765625 -22.484375 C 17.347656 -22.640625 16.925781 -22.832031 16.5 -23.0625 C 16.082031 -23.300781 15.664062 -23.523438 15.25 -23.734375 C 14.664062 -23.992188 14.164062 -24.253906 13.75 -24.515625 C 13.28125 -24.890625 12.804688 -25.234375 12.328125 -25.546875 C 11.859375 -25.859375 11.390625 -26.195312 10.921875 -26.5625 C 10.554688 -26.875 10.191406 -27.203125 9.828125 -27.546875 C 9.460938 -27.890625 9.066406 -28.21875 8.640625 -28.53125 C 8.222656 -28.945312 7.867188 -29.378906 7.578125 -29.828125 C 7.296875 -30.273438 7.023438 -30.757812 6.765625 -31.28125 C 6.492188 -31.851562 6.238281 -32.46875 6 -33.125 C 5.769531 -33.78125 5.601562 -34.421875 5.5 -35.046875 C 4.769531 -38.710938 5.164062 -42.25 6.6875 -45.65625 C 7.050781 -46.550781 7.492188 -47.363281 8.015625 -48.09375 C 8.535156 -48.832031 9.0625 -49.566406 9.59375 -50.296875 C 10.21875 -51.085938 10.910156 -51.769531 11.671875 -52.34375 C 12.429688 -52.914062 13.226562 -53.46875 14.0625 -54 C 14.332031 -54.15625 14.582031 -54.296875 14.8125 -54.421875 C 15.050781 -54.554688 15.273438 -54.675781 15.484375 -54.78125 C 16.535156 -55.351562 17.632812 -55.71875 18.78125 -55.875 C 19.9375 -56.03125 21.085938 -56.132812 22.234375 -56.1875 C 23.648438 -56.1875 24.988281 -56.003906 26.25 -55.640625 C 27.082031 -55.429688 27.890625 -55.15625 28.671875 -54.8125 C 29.460938 -54.476562 30.203125 -54.019531 30.890625 -53.4375 C 31.460938 -53.070312 32.023438 -52.664062 32.578125 -52.21875 C 33.128906 -51.78125 33.613281 -51.269531 34.03125 -50.6875 C 34.34375 -50.320312 34.65625 -49.96875 34.96875 -49.625 C 35.289062 -49.289062 35.554688 -48.914062 35.765625 -48.5 C 36.128906 -47.707031 36.050781 -46.972656 35.53125 -46.296875 C 35.15625 -45.765625 34.769531 -45.265625 34.375 -44.796875 C 33.988281 -44.328125 33.585938 -43.832031 33.171875 -43.3125 C 32.960938 -43.039062 32.710938 -42.757812 32.421875 -42.46875 C 32.128906 -42.1875 31.851562 -41.914062 31.59375 -41.65625 C 31.332031 -41.394531 31.03125 -41.222656 30.6875 -41.140625 C 30.351562 -41.066406 29.972656 -41.03125 29.546875 -41.03125 C 29.492188 -41.03125 29.425781 -41.054688 29.34375 -41.109375 C 29.269531 -41.160156 29.179688 -41.210938 29.078125 -41.265625 C 28.816406 -41.523438 28.539062 -41.757812 28.25 -41.96875 C 27.96875 -42.175781 27.691406 -42.382812 27.421875 -42.59375 C 26.847656 -43.226562 26.066406 -43.675781 25.078125 -43.9375 C 24.234375 -44.195312 23.390625 -44.335938 22.546875 -44.359375 C 21.710938 -44.390625 20.878906 -44.351562 20.046875 -44.25 C 19.359375 -44.25 18.648438 -43.9375 17.921875 -43.3125 C 17.179688 -42.78125 16.707031 -42.175781 16.5 -41.5 C 16.34375 -40.757812 16.289062 -40.101562 16.34375 -39.53125 C 16.445312 -38.75 16.765625 -38.039062 17.296875 -37.40625 C 17.765625 -36.78125 18.441406 -36.207031 19.328125 -35.6875 C 19.910156 -35.3125 20.523438 -34.941406 21.171875 -34.578125 C 21.828125 -34.210938 22.445312 -33.847656 23.03125 -33.484375 C 23.1875 -33.378906 23.351562 -33.300781 23.53125 -33.25 C 23.71875 -33.195312 23.890625 -33.117188 24.046875 -33.015625 C 24.628906 -32.742188 25.207031 -32.476562 25.78125 -32.21875 C 26.351562 -31.957031 26.898438 -31.671875 27.421875 -31.359375 C 28.003906 -31.097656 28.539062 -30.835938 29.03125 -30.578125 C 29.53125 -30.316406 30.019531 -29.972656 30.5 -29.546875 C 30.757812 -29.335938 31.019531 -29.128906 31.28125 -28.921875 C 31.539062 -28.710938 31.773438 -28.503906 31.984375 -28.296875 C 32.191406 -28.140625 32.359375 -27.96875 32.484375 -27.78125 C 32.617188 -27.59375 32.796875 -27.445312 33.015625 -27.34375 C 33.484375 -26.976562 33.925781 -26.585938 34.34375 -26.171875 C 34.757812 -25.753906 35.097656 -25.253906 35.359375 -24.671875 C 35.472656 -24.410156 35.609375 -24.148438 35.765625 -23.890625 C 35.921875 -23.628906 36.050781 -23.367188 36.15625 -23.109375 C 36.3125 -22.640625 36.476562 -22.15625 36.65625 -21.65625 C 36.84375 -21.15625 36.960938 -20.671875 37.015625 -20.203125 C 37.753906 -16.484375 37.363281 -12.921875 35.84375 -9.515625 C 35.46875 -8.671875 35.03125 -7.867188 34.53125 -7.109375 C 34.039062 -6.347656 33.507812 -5.601562 32.9375 -4.875 C 32.351562 -4.082031 31.664062 -3.410156 30.875 -2.859375 C 30.09375 -2.316406 29.3125 -1.753906 28.53125 -1.171875 C 28.320312 -1.066406 28.097656 -0.945312 27.859375 -0.8125 C 27.617188 -0.6875 27.367188 -0.546875 27.109375 -0.390625 C 26.015625 0.128906 24.898438 0.476562 23.765625 0.65625 C 22.640625 0.84375 21.476562 0.9375 20.28125 0.9375 Z M 20.28125 0.9375 "/></g></g></g><g fill="#000000" fill-opacity="1"><g transform="translate(164.652261, 75.763048)"><g><path d="M 21.140625 -25.234375 C 21.140625 -22.347656 21.125 -19.488281 21.09375 -16.65625 C 21.070312 -13.832031 21.035156 -10.976562 20.984375 -8.09375 C 20.984375 -6.832031 20.957031 -5.570312 20.90625 -4.3125 C 20.851562 -3.0625 20.800781 -1.804688 20.75 -0.546875 C 20.75 -0.078125 20.460938 0.257812 19.890625 0.46875 C 18.890625 0.675781 17.90625 0.804688 16.9375 0.859375 C 15.96875 0.910156 14.957031 0.859375 13.90625 0.703125 C 13.695312 0.648438 13.472656 0.625 13.234375 0.625 C 13.003906 0.625 12.785156 0.597656 12.578125 0.546875 C 11.578125 0.390625 11.078125 -0.15625 11.078125 -1.09375 L 11.078125 -9.109375 C 11.078125 -11.265625 11.050781 -13.398438 11 -15.515625 C 10.945312 -17.640625 10.945312 -19.773438 11 -21.921875 C 11 -23.859375 11.035156 -25.8125 11.109375 -27.78125 C 11.191406 -29.75 11.285156 -31.703125 11.390625 -33.640625 C 11.492188 -35.003906 11.546875 -36.363281 11.546875 -37.71875 C 11.546875 -39.082031 11.546875 -40.421875 11.546875 -41.734375 C 11.546875 -42.304688 11.546875 -42.84375 11.546875 -43.34375 C 11.546875 -43.84375 11.519531 -44.351562 11.46875 -44.875 C 11.46875 -45.132812 11.453125 -45.273438 11.421875 -45.296875 C 11.398438 -45.328125 11.257812 -45.34375 11 -45.34375 C 9.6875 -45.34375 8.375 -45.34375 7.0625 -45.34375 C 5.757812 -45.34375 4.425781 -45.289062 3.0625 -45.1875 L 2.359375 -45.1875 C 2.046875 -45.1875 1.835938 -45.394531 1.734375 -45.8125 C 1.679688 -46.132812 1.640625 -46.453125 1.609375 -46.765625 C 1.585938 -47.078125 1.578125 -47.414062 1.578125 -47.78125 C 1.578125 -48.9375 1.601562 -50.078125 1.65625 -51.203125 C 1.707031 -52.328125 1.785156 -53.46875 1.890625 -54.625 C 1.941406 -55.25 2.28125 -55.585938 2.90625 -55.640625 C 3.851562 -55.691406 4.8125 -55.726562 5.78125 -55.75 C 6.75 -55.78125 7.703125 -55.769531 8.640625 -55.71875 C 11.578125 -55.507812 14.507812 -55.390625 17.4375 -55.359375 C 20.375 -55.335938 23.3125 -55.351562 26.25 -55.40625 C 26.976562 -55.40625 27.695312 -55.414062 28.40625 -55.4375 C 29.113281 -55.46875 29.8125 -55.484375 30.5 -55.484375 C 30.914062 -55.484375 31.1875 -55.414062 31.3125 -55.28125 C 31.445312 -55.15625 31.515625 -54.882812 31.515625 -54.46875 C 31.566406 -53.414062 31.550781 -52.351562 31.46875 -51.28125 C 31.394531 -50.207031 31.332031 -49.117188 31.28125 -48.015625 L 31.28125 -46.453125 C 31.226562 -45.816406 30.914062 -45.472656 30.34375 -45.421875 L 29.859375 -45.421875 C 28.765625 -45.523438 27.664062 -45.550781 26.5625 -45.5 C 25.46875 -45.445312 24.394531 -45.394531 23.34375 -45.34375 L 22.078125 -45.34375 C 21.816406 -45.34375 21.6875 -45.210938 21.6875 -44.953125 L 21.6875 -44.328125 C 21.6875 -43.171875 21.695312 -42.003906 21.71875 -40.828125 C 21.75 -39.648438 21.738281 -38.484375 21.6875 -37.328125 C 21.632812 -35.390625 21.582031 -33.476562 21.53125 -31.59375 C 21.476562 -29.707031 21.398438 -27.820312 21.296875 -25.9375 C 21.242188 -25.78125 21.21875 -25.546875 21.21875 -25.234375 Z M 21.140625 -25.234375 "/></g></g></g></svg>